<svg xmlns="http://www.w3.org/2000/svg" viewBox="0 0 920 500" width="920" height="500" role="img" aria-label="pamoja - a global mesh of devices relaying data around the world">
  <defs>
    <radialGradient id="sphere" cx="0.42" cy="0.38" r="0.72"><stop offset="0" stop-color="#15273f"/><stop offset="0.7" stop-color="#0c1a2c"/><stop offset="1" stop-color="#081320"/></radialGradient>
    <radialGradient id="atmo" cx="0.5" cy="0.5" r="0.5"><stop offset="0.74" stop-color="#1FA995" stop-opacity="0"/><stop offset="0.93" stop-color="#1FA995" stop-opacity="0.3"/><stop offset="1" stop-color="#1FA995" stop-opacity="0"/></radialGradient>
    <clipPath id="globe"><circle cx="460" cy="250" r="190"/></clipPath>
  </defs>
  <circle cx="460" cy="250" r="224" fill="url(#atmo)"/>
  <g><g transform="rotate(-20 460 250)"><ellipse cx="460" cy="250" rx="300.2" ry="79.8" fill="none" stroke="#1FA995" stroke-opacity="0.32" stroke-width="1.4"/></g><g transform="rotate(28 460 250)"><ellipse cx="460" cy="250" rx="262.2" ry="114.0" fill="none" stroke="#FFB627" stroke-opacity="0.26" stroke-width="1.4"/></g><g transform="rotate(7 460 250)"><ellipse cx="460" cy="250" rx="228.0" ry="57.0" fill="none" stroke="#F26A4B" stroke-opacity="0.24" stroke-width="1.4"/></g><g transform="rotate(-52 460 250)"><ellipse cx="460" cy="250" rx="277.4" ry="34.2" fill="none" stroke="#1FA995" stroke-opacity="0.2" stroke-width="1.4"/></g></g>
  <circle cx="460" cy="250" r="190" fill="url(#sphere)"/>
  <g clip-path="url(#globe)"><circle cx="460" cy="62.9" r="1.13" fill="#1FA995"><animate attributeName="opacity" values="0.30;0.80;0.30" dur="3s" begin="0s" repeatCount="indefinite"/></circle><circle cx="473.8" cy="62.3" r="1.09" fill="#1FA995" opacity="0.28"/><circle cx="439.4" cy="63" r="1.09" fill="#1FA995" opacity="0.28"/><circle cx="473.4" cy="68.6" r="1.29" fill="#1FA995" opacity="0.36"/><circle cx="466.3" cy="60.1" r="0.92" fill="#1FA995" opacity="0.21"/><circle cx="432.3" cy="69.3" r="1.27" fill="#1FA995" opacity="0.35"/><circle cx="497" cy="67.3" r="1.16" fill="#1FA995" opacity="0.31"/><circle cx="433.9" cy="61.8" r="0.92" fill="#1FA995" opacity="0.21"/><circle cx="458.5" cy="75.2" r="1.43" fill="#1FA995" opacity="0.42"/><circle cx="491.8" cy="62.7" r="0.90" fill="#1FA995" opacity="0.20"/><circle cx="412.2" cy="69.4" r="1.14" fill="#1FA995" opacity="0.30"/><circle cx="498.8" cy="75.1" r="1.35" fill="#1FA995" opacity="0.38"/><circle cx="429.2" cy="78.6" r="1.44" fill="#1FA995" opacity="0.42"/><circle cx="515" cy="69.1" r="1.03" fill="#1FA995" opacity="0.25"/><circle cx="409.1" cy="67" r="0.92" fill="#1FA995" opacity="0.21"/><circle cx="478.8" cy="82.5" r="1.52" fill="#1FA995" opacity="0.45"/><circle cx="401.3" cy="78.1" r="1.30" fill="#1FA995"><animate attributeName="opacity" values="0.36;0.86;0.36" dur="6s" begin="1.2s" repeatCount="indefinite"/></circle><circle cx="521.8" cy="78.1" r="1.27" fill="#1FA995" opacity="0.35"/><circle cx="443" cy="87.2" r="1.58" fill="#1FA995" opacity="0.48"/><circle cx="389.1" cy="74.8" r="1.04" fill="#1FA995" opacity="0.26"/><circle cx="505.4" cy="87.4" r="1.52" fill="#1FA995" opacity="0.45"/><circle cx="404.4" cy="87.7" r="1.48" fill="#1FA995" opacity="0.44"/><circle cx="537.6" cy="79" r="1.11" fill="#1FA995" opacity="0.28"/><circle cx="468" cy="94.3" r="1.67" fill="#1FA995" opacity="0.51"/><circle cx="378.6" cy="84.3" r="1.22" fill="#1FA995" opacity="0.33"/><circle cx="531.5" cy="89.9" r="1.42" fill="#1FA995" opacity="0.41"/><circle cx="421" cy="96.9" r="1.65" fill="#1FA995" opacity="0.51"/><circle cx="542.1" cy="78.6" r="0.89" fill="#1FA995" opacity="0.20"/><circle cx="377.4" cy="78.9" r="0.88" fill="#1FA995" opacity="0.19"/><circle cx="499.2" cy="99.3" r="1.67" fill="#1FA995" opacity="0.52"/><circle cx="380.7" cy="94.7" r="1.44" fill="#1FA995" opacity="0.42"/><circle cx="551.5" cy="90.4" r="1.24" fill="#1FA995" opacity="0.34"/><circle cx="448.9" cy="104.8" r="1.77" fill="#1FA995"><animate attributeName="opacity" values="0.55;1.00;0.55" dur="5s" begin="0s" repeatCount="indefinite"/></circle><circle cx="362.4" cy="89" r="1.08" fill="#1FA995" opacity="0.27"/><circle cx="530.8" cy="102" r="1.58" fill="#1FA995" opacity="0.48"/><circle cx="396.5" cy="104.9" r="1.65" fill="#1FA995" opacity="0.50"/><circle cx="560.5" cy="89.3" r="0.99" fill="#1FA995" opacity="0.24"/><circle cx="484" cy="110.6" r="1.80" fill="#1FA995" opacity="0.57"/><circle cx="360" cy="100.1" r="1.33" fill="#1FA995" opacity="0.37"/><circle cx="557.1" cy="102.5" r="1.40" fill="#1FA995" opacity="0.40"/><circle cx="424.7" cy="113.9" r="1.81" fill="#1FA995" opacity="0.57"/><circle cx="353.4" cy="92.7" r="0.90" fill="#1FA995" opacity="0.20"/><circle cx="521" cy="114" r="1.74" fill="#1FA995" opacity="0.54"/><circle cx="372" cy="111.3" r="1.58" fill="#1FA995" opacity="0.48"/><circle cx="573" cy="101.1" r="1.14" fill="#1FA995" opacity="0.30"/><circle cx="462" cy="120.9" r="1.89" fill="#1FA995" opacity="0.60"/><circle cx="344.1" cy="104.3" r="1.17" fill="#1FA995" opacity="0.31"/><circle cx="554.3" cy="114.9" r="1.57" fill="#1FA995" opacity="0.47"/><circle cx="398" cy="121.6" r="1.79" fill="#1FA995"><animate attributeName="opacity" values="0.56;1.00;0.56" dur="6s" begin="1.5s" repeatCount="indefinite"/></circle><circle cx="503.5" cy="125.4" r="1.87" fill="#1FA995" opacity="0.60"/><circle cx="349.9" cy="116.4" r="1.46" fill="#1FA995" opacity="0.43"/><circle cx="578.3" cy="113.7" r="1.32" fill="#1FA995" opacity="0.37"/><circle cx="435.3" cy="130.1" r="1.93" fill="#1FA995" opacity="0.62"/><circle cx="334.7" cy="107.6" r="0.98" fill="#1FA995" opacity="0.23"/><circle cx="543.4" cy="127.2" r="1.74" fill="#1FA995" opacity="0.54"/><circle cx="371.2" cy="127.9" r="1.72" fill="#1FA995" opacity="0.53"/><circle cx="588.6" cy="111" r="1.02" fill="#1FA995" opacity="0.25"/><circle cx="479.6" cy="136" r="1.97" fill="#1FA995" opacity="0.64"/><circle cx="332.3" cy="120.3" r="1.29" fill="#1FA995" opacity="0.36"/><circle cx="575.7" cy="126.5" r="1.51" fill="#1FA995" opacity="0.45"/><circle cx="406.2" cy="137.9" r="1.92" fill="#1FA995" opacity="0.62"/><circle cx="524.9" cy="139.1" r="1.89" fill="#1FA995" opacity="0.61"/><circle cx="346.6" cy="132.9" r="1.59" fill="#1FA995" opacity="0.48"/><circle cx="595.4" cy="123.9" r="1.21" fill="#1FA995" opacity="0.33"/><circle cx="451" cy="145.5" r="2.03" fill="#1FA995"><animate attributeName="opacity" values="0.66;1.00;0.66" dur="5s" begin="1.7999999999999998s" repeatCount="indefinite"/></circle><circle cx="320.7" cy="123.3" r="1.08" fill="#1FA995" opacity="0.27"/><circle cx="565.2" cy="139.3" r="1.70" fill="#1FA995" opacity="0.53"/><circle cx="376.7" cy="144.3" r="1.85" fill="#1FA995" opacity="0.59"/><circle cx="500.1" cy="150.1" r="2.01" fill="#1FA995" opacity="0.65"/><circle cx="326.2" cy="136.7" r="1.42" fill="#1FA995" opacity="0.41"/><circle cx="594.5" cy="137.2" r="1.42" fill="#1FA995" opacity="0.41"/><circle cx="419.6" cy="153.6" r="2.03" fill="#1FA995" opacity="0.66"/><circle cx="547.1" cy="151.7" r="1.88" fill="#1FA995" opacity="0.60"/><circle cx="349.1" cy="149.4" r="1.73" fill="#1FA995" opacity="0.54"/><circle cx="608.3" cy="133.5" r="1.07" fill="#1FA995" opacity="0.27"/><circle cx="470.2" cy="160.1" r="2.09" fill="#1FA995" opacity="0.68"/><circle cx="311.6" cy="139.5" r="1.21" fill="#1FA995" opacity="0.32"/><circle cx="585.6" cy="150.5" r="1.63" fill="#1FA995" opacity="0.50"/><circle cx="387.5" cy="160.4" r="1.97" fill="#1FA995" opacity="0.64"/><circle cx="522.2" cy="163.3" r="2.02" fill="#1FA995" opacity="0.66"/><circle cx="325.4" cy="153.2" r="1.56" fill="#1FA995"><animate attributeName="opacity" values="0.47;0.97;0.47" dur="6s" begin="0.6s" repeatCount="indefinite"/></circle><circle cx="610.1" cy="147.1" r="1.29" fill="#1FA995" opacity="0.36"/><circle cx="437.1" cy="168.7" r="2.11" fill="#1FA995" opacity="0.69"/><circle cx="304.2" cy="141.7" r="0.97" fill="#1FA995" opacity="0.23"/><circle cx="568.8" cy="163.4" r="1.82" fill="#1FA995" opacity="0.57"/><circle cx="356.9" cy="165.7" r="1.86" fill="#1FA995" opacity="0.59"/><circle cx="616.7" cy="142.6" r="0.90" fill="#1FA995" opacity="0.20"/><circle cx="491.8" cy="173.9" r="2.12" fill="#1FA995" opacity="0.70"/><circle cx="307.3" cy="156" r="1.35" fill="#1FA995" opacity="0.38"/><circle cx="603.7" cy="160.9" r="1.52" fill="#1FA995" opacity="0.45"/><circle cx="402.8" cy="176" r="2.08" fill="#1FA995" opacity="0.68"/><circle cx="544.8" cy="175.7" r="1.99" fill="#1FA995" opacity="0.64"/><circle cx="329.7" cy="169.8" r="1.70" fill="#1FA995" opacity="0.53"/><circle cx="622" cy="156.4" r="1.14" fill="#1FA995" opacity="0.30"/><circle cx="457.7" cy="183.2" r="2.16" fill="#1FA995" opacity="0.71"/><circle cx="296.2" cy="158.1" r="1.10" fill="#1FA995" opacity="0.28"/><circle cx="589.2" cy="174.3" r="1.73" fill="#1FA995"><animate attributeName="opacity" values="0.54;1.00;0.54" dur="3s" begin="0.3s" repeatCount="indefinite"/></circle><circle cx="369.3" cy="181.8" r="1.98" fill="#1FA995" opacity="0.64"/><circle cx="514.8" cy="186.9" r="2.11" fill="#1FA995" opacity="0.69"/><circle cx="307.7" cy="172.7" r="1.49" fill="#1FA995" opacity="0.44"/><circle cx="619" cy="170.5" r="1.38" fill="#1FA995" opacity="0.39"/><circle cx="421.6" cy="191" r="2.15" fill="#1FA995" opacity="0.71"/><circle cx="567" cy="187.2" r="1.92" fill="#1FA995" opacity="0.62"/><circle cx="338.7" cy="186.2" r="1.83" fill="#1FA995" opacity="0.58"/><circle cx="629.8" cy="165.3" r="0.97" fill="#1FA995" opacity="0.23"/><circle cx="480.3" cy="196.9" r="2.19" fill="#1FA995" opacity="0.72"/><circle cx="292.5" cy="174.8" r="1.25" fill="#1FA995" opacity="0.34"/><circle cx="607.5" cy="184.5" r="1.61" fill="#1FA995" opacity="0.49"/><circle cx="385.6" cy="197.4" r="2.08" fill="#1FA995" opacity="0.68"/><circle cx="538.2" cy="199.1" r="2.08" fill="#1FA995" opacity="0.68"/><circle cx="312.8" cy="189.4" r="1.64" fill="#1FA995" opacity="0.50"/><circle cx="630.7" cy="179.7" r="1.22" fill="#1FA995" opacity="0.33"/><circle cx="443.1" cy="205.4" r="2.21" fill="#1FA995"><animate attributeName="opacity" values="0.73;1.00;0.73" dur="4s" begin="1.2s" repeatCount="indefinite"/></circle><circle cx="285.3" cy="176.3" r="0.98" fill="#1FA995" opacity="0.23"/><circle cx="587.9" cy="197.9" r="1.83" fill="#1FA995" opacity="0.58"/><circle cx="351.9" cy="202.4" r="1.96" fill="#1FA995" opacity="0.63"/><circle cx="504.2" cy="209.8" r="2.18" fill="#1FA995" opacity="0.72"/><circle cx="293.4" cy="191.6" r="1.40" fill="#1FA995" opacity="0.40"/><circle cx="623" cy="194" r="1.47" fill="#1FA995" opacity="0.43"/><circle cx="405.3" cy="212.5" r="2.17" fill="#1FA995" opacity="0.72"/><circle cx="561.1" cy="210.5" r="2.01" fill="#1FA995" opacity="0.65"/><circle cx="322.3" cy="206" r="1.78" fill="#1FA995" opacity="0.56"/><circle cx="638.6" cy="188.4" r="1.04" fill="#1FA995" opacity="0.26"/><circle cx="466.6" cy="219.1" r="2.23" fill="#1FA995" opacity="0.74"/><circle cx="281.7" cy="193.1" r="1.13" fill="#1FA995" opacity="0.29"/><circle cx="606.7" cy="207.9" r="1.70" fill="#1FA995" opacity="0.53"/><circle cx="368.9" cy="218.1" r="2.06" fill="#1FA995" opacity="0.67"/><circle cx="528.3" cy="222" r="2.14" fill="#1FA995" opacity="0.71"/><circle cx="298.7" cy="208.5" r="1.55" fill="#1FA995"><animate attributeName="opacity" values="0.46;0.96;0.46" dur="5s" begin="0s" repeatCount="indefinite"/></circle><circle cx="635.1" cy="203" r="1.30" fill="#1FA995" opacity="0.36"/><circle cx="427.5" cy="227" r="2.22" fill="#1FA995" opacity="0.74"/><circle cx="582.6" cy="221.2" r="1.91" fill="#1FA995" opacity="0.61"/><circle cx="335.9" cy="222.2" r="1.90" fill="#1FA995" opacity="0.61"/><circle cx="491.1" cy="232.1" r="2.23" fill="#1FA995" opacity="0.74"/><circle cx="282.5" cy="210.1" r="1.29" fill="#1FA995" opacity="0.36"/><circle cx="622.7" cy="217.4" r="1.56" fill="#1FA995" opacity="0.47"/><circle cx="389" cy="233.2" r="2.15" fill="#1FA995" opacity="0.71"/><circle cx="551.8" cy="233.4" r="2.08" fill="#1FA995" opacity="0.68"/><circle cx="308.3" cy="225.1" r="1.69" fill="#1FA995" opacity="0.52"/><circle cx="643.4" cy="211.7" r="1.13" fill="#1FA995" opacity="0.29"/><circle cx="451.5" cy="240.7" r="2.25" fill="#1FA995" opacity="0.75"/><circle cx="274.6" cy="211.1" r="1.00" fill="#1FA995" opacity="0.24"/><circle cx="602" cy="231.2" r="1.79" fill="#1FA995" opacity="0.56"/><circle cx="353.1" cy="238" r="2.01" fill="#1FA995" opacity="0.65"/><circle cx="515.8" cy="244.3" r="2.19" fill="#1FA995"><animate attributeName="opacity" values="0.73;1.00;0.73" dur="7s" begin="1.2s" repeatCount="indefinite"/></circle><circle cx="287.6" cy="227" r="1.44" fill="#1FA995" opacity="0.42"/><circle cx="635.4" cy="226.3" r="1.39" fill="#1FA995" opacity="0.40"/><circle cx="411.5" cy="247.8" r="2.21" fill="#1FA995" opacity="0.73"/><circle cx="574" cy="244.1" r="1.98" fill="#1FA995" opacity="0.64"/><circle cx="321.8" cy="241.5" r="1.82" fill="#1FA995" opacity="0.58"/><circle cx="647.6" cy="220.1" r="0.94" fill="#1FA995" opacity="0.22"/><circle cx="476.5" cy="253.8" r="2.24" fill="#1FA995" opacity="0.75"/><circle cx="274.9" cy="228.2" r="1.16" fill="#1FA995" opacity="0.31"/><circle cx="618.7" cy="240.6" r="1.64" fill="#1FA995" opacity="0.50"/><circle cx="373.3" cy="253.3" r="2.10" fill="#1FA995" opacity="0.69"/><circle cx="539.9" cy="255.8" r="2.12" fill="#1FA995" opacity="0.70"/><circle cx="296.9" cy="243.8" r="1.59" fill="#1FA995" opacity="0.48"/><circle cx="644.3" cy="235" r="1.21" fill="#1FA995" opacity="0.33"/><circle cx="435.8" cy="261.7" r="2.24" fill="#1FA995" opacity="0.74"/><circle cx="594" cy="254.1" r="1.86" fill="#1FA995" opacity="0.59"/><circle cx="338.9" cy="257.4" r="1.94" fill="#1FA995"><animate attributeName="opacity" values="0.62;1.00;0.62" dur="3s" begin="0s" repeatCount="indefinite"/></circle><circle cx="501.6" cy="266" r="2.21" fill="#1FA995" opacity="0.73"/><circle cx="279.6" cy="245.2" r="1.32" fill="#1FA995" opacity="0.37"/><circle cx="632" cy="249.6" r="1.47" fill="#1FA995" opacity="0.43"/><circle cx="395.9" cy="268" r="2.16" fill="#1FA995" opacity="0.72"/><circle cx="562.6" cy="266.5" r="2.03" fill="#1FA995" opacity="0.66"/><circle cx="310" cy="260.2" r="1.73" fill="#1FA995" opacity="0.54"/><circle cx="649.1" cy="243.3" r="1.02" fill="#1FA995" opacity="0.25"/><circle cx="461" cy="274.8" r="2.24" fill="#1FA995" opacity="0.75"/><circle cx="270.9" cy="246.1" r="1.03" fill="#1FA995" opacity="0.25"/><circle cx="611.3" cy="263.6" r="1.71" fill="#1FA995" opacity="0.53"/><circle cx="358.9" cy="272.8" r="2.03" fill="#1FA995" opacity="0.66"/><circle cx="526.1" cy="277.6" r="2.15" fill="#1FA995" opacity="0.71"/><circle cx="288.3" cy="262" r="1.47" fill="#1FA995" opacity="0.43"/><circle cx="641.6" cy="258.2" r="1.29" fill="#1FA995" opacity="0.36"/><circle cx="420.2" cy="282" r="2.20" fill="#1FA995" opacity="0.73"/><circle cx="583.2" cy="276.6" r="1.91" fill="#1FA995"><animate attributeName="opacity" values="0.61;1.00;0.61" dur="5s" begin="1.2s" repeatCount="indefinite"/></circle><circle cx="326.7" cy="276.2" r="1.84" fill="#1FA995" opacity="0.58"/><circle cx="486.3" cy="287.2" r="2.21" fill="#1FA995" opacity="0.73"/><circle cx="274.9" cy="263.1" r="1.19" fill="#1FA995" opacity="0.32"/><circle cx="625.2" cy="272.6" r="1.55" fill="#1FA995" opacity="0.46"/><circle cx="381.3" cy="287.6" r="2.10" fill="#1FA995" opacity="0.69"/><circle cx="549.2" cy="288.5" r="2.06" fill="#1FA995" opacity="0.67"/><circle cx="301" cy="278.5" r="1.61" fill="#1FA995" opacity="0.49"/><circle cx="647.1" cy="266.6" r="1.10" fill="#1FA995" opacity="0.28"/><circle cx="445.3" cy="295.2" r="2.21" fill="#1FA995" opacity="0.73"/><circle cx="270.5" cy="263.9" r="0.90" fill="#1FA995" opacity="0.20"/><circle cx="601" cy="286.2" r="1.77" fill="#1FA995" opacity="0.55"/><circle cx="346.3" cy="291.7" r="1.94" fill="#1FA995" opacity="0.62"/><circle cx="511" cy="298.9" r="2.15" fill="#1FA995" opacity="0.71"/><circle cx="283.1" cy="280" r="1.34" fill="#1FA995" opacity="0.38"/><circle cx="635.4" cy="281.3" r="1.37" fill="#1FA995" opacity="0.39"/><circle cx="405.3" cy="301.6" r="2.14" fill="#1FA995"><animate attributeName="opacity" values="0.71;1.00;0.71" dur="6s" begin="0s" repeatCount="indefinite"/></circle><circle cx="570.1" cy="298.7" r="1.94" fill="#1FA995" opacity="0.63"/><circle cx="317.1" cy="294.6" r="1.73" fill="#1FA995" opacity="0.54"/><circle cx="648.4" cy="274.9" r="0.91" fill="#1FA995" opacity="0.20"/><circle cx="470.6" cy="307.7" r="2.18" fill="#1FA995" opacity="0.72"/><circle cx="273.8" cy="281" r="1.06" fill="#1FA995" opacity="0.26"/><circle cx="615.4" cy="295.3" r="1.61" fill="#1FA995" opacity="0.49"/><circle cx="368.3" cy="306.6" r="2.01" fill="#1FA995" opacity="0.65"/><circle cx="534.1" cy="309.8" r="2.07" fill="#1FA995" opacity="0.68"/><circle cx="295" cy="296.6" r="1.48" fill="#1FA995" opacity="0.44"/><circle cx="641.5" cy="289.7" r="1.18" fill="#1FA995" opacity="0.31"/><circle cx="430.2" cy="315" r="2.15" fill="#1FA995" opacity="0.71"/><circle cx="588.2" cy="308.3" r="1.81" fill="#1FA995" opacity="0.57"/><circle cx="336.1" cy="310.2" r="1.83" fill="#1FA995" opacity="0.58"/><circle cx="495.2" cy="319.5" r="2.13" fill="#1FA995" opacity="0.70"/><circle cx="281.3" cy="297.8" r="1.21" fill="#1FA995" opacity="0.33"/><circle cx="626.1" cy="304" r="1.43" fill="#1FA995"><animate attributeName="opacity" values="0.42;0.92;0.42" dur="3s" begin="1.2s" repeatCount="indefinite"/></circle><circle cx="391.8" cy="320.8" r="2.06" fill="#1FA995" opacity="0.67"/><circle cx="555.1" cy="320.2" r="1.96" fill="#1FA995" opacity="0.63"/><circle cx="310.5" cy="312.7" r="1.60" fill="#1FA995" opacity="0.49"/><circle cx="643.4" cy="298.1" r="0.99" fill="#1FA995" opacity="0.24"/><circle cx="455.1" cy="327.6" r="2.13" fill="#1FA995" opacity="0.70"/><circle cx="276.4" cy="298.8" r="0.92" fill="#1FA995" opacity="0.21"/><circle cx="602.9" cy="317.5" r="1.65" fill="#1FA995" opacity="0.51"/><circle cx="357.5" cy="325.1" r="1.90" fill="#1FA995" opacity="0.61"/><circle cx="518.2" cy="330.6" r="2.05" fill="#1FA995" opacity="0.67"/><circle cx="292.6" cy="314.4" r="1.35" fill="#1FA995" opacity="0.38"/><circle cx="632.6" cy="312.6" r="1.25" fill="#1FA995" opacity="0.34"/><circle cx="416.2" cy="334.2" r="2.07" fill="#1FA995" opacity="0.68"/><circle cx="573.3" cy="329.9" r="1.82" fill="#1FA995" opacity="0.58"/><circle cx="328.9" cy="328.2" r="1.70" fill="#1FA995" opacity="0.53"/><circle cx="479.3" cy="339.5" r="2.08" fill="#1FA995" opacity="0.68"/><circle cx="283.3" cy="315.6" r="1.07" fill="#1FA995"><animate attributeName="opacity" values="0.27;0.77;0.27" dur="6s" begin="0.6s" repeatCount="indefinite"/></circle><circle cx="613.7" cy="326.4" r="1.48" fill="#1FA995" opacity="0.44"/><circle cx="380.4" cy="339.3" r="1.95" fill="#1FA995" opacity="0.63"/><circle cx="539" cy="341" r="1.94" fill="#1FA995" opacity="0.63"/><circle cx="307.5" cy="330.4" r="1.47" fill="#1FA995" opacity="0.43"/><circle cx="634.7" cy="321" r="1.06" fill="#1FA995" opacity="0.27"/><circle cx="440.7" cy="346.9" r="2.05" fill="#1FA995" opacity="0.67"/><circle cx="587.9" cy="339.3" r="1.67" fill="#1FA995" opacity="0.51"/><circle cx="349.6" cy="343.1" r="1.78" fill="#1FA995" opacity="0.56"/><circle cx="502" cy="350.7" r="2.01" fill="#1FA995" opacity="0.65"/><circle cx="294.1" cy="332.1" r="1.21" fill="#1FA995" opacity="0.32"/><circle cx="620.3" cy="335" r="1.30" fill="#1FA995" opacity="0.36"/><circle cx="404.2" cy="352.8" r="1.96" fill="#1FA995" opacity="0.63"/><circle cx="556.8" cy="350.9" r="1.81" fill="#1FA995" opacity="0.57"/><circle cx="325.3" cy="346" r="1.56" fill="#1FA995" opacity="0.47"/><circle cx="632.5" cy="329.6" r="0.88" fill="#1FA995" opacity="0.19"/><circle cx="464.3" cy="358.8" r="2.01" fill="#1FA995"><animate attributeName="opacity" values="0.65;1.00;0.65" dur="3s" begin="1.7999999999999998s" repeatCount="indefinite"/></circle><circle cx="289.4" cy="333.4" r="0.93" fill="#1FA995" opacity="0.21"/><circle cx="598.6" cy="348.2" r="1.50" fill="#1FA995" opacity="0.45"/><circle cx="371.9" cy="357.3" r="1.82" fill="#1FA995" opacity="0.58"/><circle cx="522.2" cy="361.2" r="1.90" fill="#1FA995" opacity="0.61"/><circle cx="308.5" cy="348.1" r="1.32" fill="#1FA995" opacity="0.37"/><circle cx="622.4" cy="343.6" r="1.12" fill="#1FA995" opacity="0.29"/><circle cx="427.9" cy="365.5" r="1.95" fill="#1FA995" opacity="0.63"/><circle cx="571" cy="360.3" r="1.67" fill="#1FA995" opacity="0.51"/><circle cx="345.4" cy="360.8" r="1.63" fill="#1FA995" opacity="0.50"/><circle cx="486.1" cy="370" r="1.93" fill="#1FA995" opacity="0.62"/><circle cx="300" cy="349.8" r="1.06" fill="#1FA995" opacity="0.27"/><circle cx="604.8" cy="357" r="1.33" fill="#1FA995" opacity="0.38"/><circle cx="394.9" cy="370.7" r="1.83" fill="#1FA995" opacity="0.58"/><circle cx="539.3" cy="371.1" r="1.77" fill="#1FA995" opacity="0.56"/><circle cx="325.9" cy="363.4" r="1.41" fill="#1FA995" opacity="0.41"/><circle cx="620" cy="352.3" r="0.94" fill="#1FA995"><animate attributeName="opacity" values="0.22;0.72;0.22" dur="5s" begin="0.8999999999999999s" repeatCount="indefinite"/></circle><circle cx="450.7" cy="377.4" r="1.90" fill="#1FA995" opacity="0.61"/><circle cx="581" cy="369.4" r="1.50" fill="#1FA995" opacity="0.45"/><circle cx="367" cy="374.9" r="1.67" fill="#1FA995" opacity="0.52"/><circle cx="505.4" cy="380.5" r="1.83" fill="#1FA995" opacity="0.58"/><circle cx="314.3" cy="365.6" r="1.17" fill="#1FA995" opacity="0.31"/><circle cx="606.4" cy="365.7" r="1.15" fill="#1FA995" opacity="0.30"/><circle cx="417.8" cy="383.3" r="1.81" fill="#1FA995" opacity="0.57"/><circle cx="552.5" cy="380.6" r="1.63" fill="#1FA995" opacity="0.50"/><circle cx="345.6" cy="378.1" r="1.48" fill="#1FA995" opacity="0.44"/><circle cx="471.5" cy="388.5" r="1.82" fill="#1FA995" opacity="0.58"/><circle cx="310.8" cy="367.6" r="0.93" fill="#1FA995" opacity="0.21"/><circle cx="586.2" cy="378.3" r="1.33" fill="#1FA995" opacity="0.38"/><circle cx="389.4" cy="388.1" r="1.68" fill="#1FA995" opacity="0.52"/><circle cx="521.3" cy="390.4" r="1.70" fill="#1FA995" opacity="0.53"/><circle cx="331.7" cy="380.8" r="1.26" fill="#1FA995" opacity="0.35"/><circle cx="603" cy="374.6" r="0.98" fill="#1FA995"><animate attributeName="opacity" values="0.23;0.73;0.23" dur="4s" begin="0.6s" repeatCount="indefinite"/></circle><circle cx="439.6" cy="395.1" r="1.76" fill="#1FA995" opacity="0.55"/><circle cx="561" cy="389.7" r="1.47" fill="#1FA995" opacity="0.43"/><circle cx="367" cy="391.9" r="1.51" fill="#1FA995" opacity="0.45"/><circle cx="489.4" cy="398.9" r="1.71" fill="#1FA995" opacity="0.53"/><circle cx="325.7" cy="383.2" r="1.03" fill="#1FA995" opacity="0.25"/><circle cx="586.3" cy="387.1" r="1.16" fill="#1FA995" opacity="0.31"/><circle cx="411.5" cy="400.4" r="1.65" fill="#1FA995" opacity="0.51"/><circle cx="532.7" cy="399.8" r="1.55" fill="#1FA995" opacity="0.46"/><circle cx="351.7" cy="395.1" r="1.31" fill="#1FA995" opacity="0.37"/><circle cx="459.1" cy="406" r="1.67" fill="#1FA995" opacity="0.51"/><circle cx="564.3" cy="398.6" r="1.30" fill="#1FA995" opacity="0.36"/><circle cx="389" cy="404.8" r="1.50" fill="#1FA995" opacity="0.44"/><circle cx="503.4" cy="408.6" r="1.58" fill="#1FA995" opacity="0.48"/><circle cx="344.2" cy="398" r="1.10" fill="#1FA995" opacity="0.28"/><circle cx="580.7" cy="396.1" r="1.00" fill="#1FA995" opacity="0.24"/><circle cx="432.2" cy="411.8" r="1.58" fill="#1FA995"><animate attributeName="opacity" values="0.48;0.98;0.48" dur="5s" begin="0.8999999999999999s" repeatCount="indefinite"/></circle><circle cx="538.8" cy="408.8" r="1.39" fill="#1FA995" opacity="0.40"/><circle cx="373.5" cy="408.5" r="1.32" fill="#1FA995" opacity="0.37"/><circle cx="475.1" cy="416" r="1.55" fill="#1FA995" opacity="0.46"/><circle cx="344.6" cy="401" r="0.89" fill="#1FA995" opacity="0.20"/><circle cx="561.4" cy="407.5" r="1.13" fill="#1FA995" opacity="0.29"/><circle cx="410.8" cy="416.6" r="1.45" fill="#1FA995" opacity="0.42"/><circle cx="512" cy="417.7" r="1.42" fill="#1FA995" opacity="0.41"/><circle cx="365.7" cy="411.8" r="1.13" fill="#1FA995" opacity="0.29"/><circle cx="450.3" cy="422.1" r="1.47" fill="#1FA995" opacity="0.43"/><circle cx="538.3" cy="417.6" r="1.21" fill="#1FA995" opacity="0.33"/><circle cx="396.3" cy="420.7" r="1.28" fill="#1FA995" opacity="0.36"/><circle cx="486.2" cy="425.1" r="1.39" fill="#1FA995" opacity="0.40"/><circle cx="366.3" cy="415.2" r="0.94" fill="#1FA995" opacity="0.22"/><circle cx="551.1" cy="416.5" r="0.96" fill="#1FA995" opacity="0.23"/><circle cx="430.9" cy="427.1" r="1.34" fill="#1FA995" opacity="0.38"/><circle cx="513.6" cy="426.2" r="1.23" fill="#1FA995"><animate attributeName="opacity" values="0.34;0.84;0.34" dur="7s" begin="1.5s" repeatCount="indefinite"/></circle><circle cx="390.1" cy="424.3" r="1.10" fill="#1FA995" opacity="0.28"/><circle cx="463.9" cy="431.2" r="1.31" fill="#1FA995" opacity="0.37"/><circle cx="529" cy="426.1" r="1.03" fill="#1FA995" opacity="0.25"/><circle cx="419.3" cy="431.3" r="1.18" fill="#1FA995" opacity="0.32"/><circle cx="489.8" cy="433.2" r="1.19" fill="#1FA995" opacity="0.32"/><circle cx="393.7" cy="428" r="0.93" fill="#1FA995" opacity="0.21"/><circle cx="447.9" cy="435.8" r="1.17" fill="#1FA995" opacity="0.31"/><circle cx="504.4" cy="434" r="1.02" fill="#1FA995" opacity="0.25"/><circle cx="418.2" cy="434.8" r="1.00" fill="#1FA995" opacity="0.24"/><circle cx="470" cy="438.3" r="1.07" fill="#1FA995" opacity="0.27"/><circle cx="442.8" cy="439" r="0.97" fill="#1FA995" opacity="0.23"/><circle cx="478.8" cy="439.1" r="0.90" fill="#1FA995" opacity="0.20"/></g>
  <circle cx="460" cy="250" r="190" fill="none" stroke="#1FA995" stroke-opacity="0.22" stroke-width="1"/>
  <g><path d="M508.6,286.1 Q583.5,246.5 599.3,208.5" fill="none" stroke="#FBF3E4" stroke-width="1" stroke-opacity="0.26"/><path d="M399.8,259.9 Q443.3,281.5 513.9,251.9" fill="none" stroke="#FBF3E4" stroke-width="1" stroke-opacity="0.26"/><path d="M416.6,242.5 Q445.5,188.2 486.3,184.6" fill="none" stroke="#FBF3E4" stroke-width="1" stroke-opacity="0.26"/><path d="M499.6,343.7 Q516.6,333.2 508.6,286.1" fill="none" stroke="#FBF3E4" stroke-width="1" stroke-opacity="0.26"/><path d="M343.3,227.2 Q348.6,241.9 399.8,259.9" fill="none" stroke="#FBF3E4" stroke-width="1" stroke-opacity="0.26"/><path d="M513.9,251.9 Q525.7,200.5 498.8,178.2" fill="none" stroke="#FBF3E4" stroke-width="1" stroke-opacity="0.26"/></g>
  <g><circle cx="508.6" cy="286.1" r="5" fill="none" stroke="#1FA995" stroke-width="1.4"><animate attributeName="r" values="5;32" dur="3.4s" begin="0.00s" repeatCount="indefinite"/><animate attributeName="stroke-opacity" values="0.6;0" dur="3.4s" begin="0.00s" repeatCount="indefinite"/></circle><circle cx="508.6" cy="286.1" r="5" fill="none" stroke="#1FA995" stroke-width="1.4"><animate attributeName="r" values="5;32" dur="3.4s" begin="1.13s" repeatCount="indefinite"/><animate attributeName="stroke-opacity" values="0.6;0" dur="3.4s" begin="1.13s" repeatCount="indefinite"/></circle><circle cx="508.6" cy="286.1" r="5" fill="none" stroke="#1FA995" stroke-width="1.4"><animate attributeName="r" values="5;32" dur="3.4s" begin="2.26s" repeatCount="indefinite"/><animate attributeName="stroke-opacity" values="0.6;0" dur="3.4s" begin="2.26s" repeatCount="indefinite"/></circle><circle cx="513.9" cy="251.9" r="5" fill="none" stroke="#FFB627" stroke-width="1.4"><animate attributeName="r" values="5;32" dur="3.4s" begin="0.00s" repeatCount="indefinite"/><animate attributeName="stroke-opacity" values="0.6;0" dur="3.4s" begin="0.00s" repeatCount="indefinite"/></circle><circle cx="513.9" cy="251.9" r="5" fill="none" stroke="#FFB627" stroke-width="1.4"><animate attributeName="r" values="5;32" dur="3.4s" begin="1.13s" repeatCount="indefinite"/><animate attributeName="stroke-opacity" values="0.6;0" dur="3.4s" begin="1.13s" repeatCount="indefinite"/></circle><circle cx="513.9" cy="251.9" r="5" fill="none" stroke="#FFB627" stroke-width="1.4"><animate attributeName="r" values="5;32" dur="3.4s" begin="2.26s" repeatCount="indefinite"/><animate attributeName="stroke-opacity" values="0.6;0" dur="3.4s" begin="2.26s" repeatCount="indefinite"/></circle></g>
  <g><circle cx="508.6" cy="286.1" r="9" fill="#1FA995" opacity="0.22"/><circle cx="508.6" cy="286.1" r="4.2" fill="#1FA995"><animate attributeName="r" values="3.6;5;3.6" dur="2.6s" begin="0.00s" repeatCount="indefinite"/></circle><circle cx="399.8" cy="259.9" r="7" fill="#FFB627" opacity="0.22"/><circle cx="399.8" cy="259.9" r="3.2" fill="#FFB627"><animate attributeName="r" values="2.8;4;2.8" dur="2.6s" begin="0.20s" repeatCount="indefinite"/></circle><circle cx="416.6" cy="242.5" r="7" fill="#F26A4B" opacity="0.22"/><circle cx="416.6" cy="242.5" r="3.2" fill="#F26A4B"><animate attributeName="r" values="2.8;4;2.8" dur="2.6s" begin="0.40s" repeatCount="indefinite"/></circle><circle cx="513.9" cy="251.9" r="9" fill="#FFB627" opacity="0.22"/><circle cx="513.9" cy="251.9" r="4.2" fill="#FFB627"><animate attributeName="r" values="3.6;5;3.6" dur="2.6s" begin="0.60s" repeatCount="indefinite"/></circle><circle cx="599.3" cy="208.5" r="7" fill="#FBF3E4" opacity="0.22"/><circle cx="599.3" cy="208.5" r="3.2" fill="#FBF3E4"><animate attributeName="r" values="2.8;4;2.8" dur="2.6s" begin="0.80s" repeatCount="indefinite"/></circle><circle cx="610.3" cy="176.1" r="7" fill="#1FA995" opacity="0.22"/><circle cx="610.3" cy="176.1" r="3.2" fill="#1FA995"><animate attributeName="r" values="2.8;4;2.8" dur="2.6s" begin="1.00s" repeatCount="indefinite"/></circle><circle cx="498.8" cy="178.2" r="7" fill="#1FA995" opacity="0.22"/><circle cx="498.8" cy="178.2" r="3.2" fill="#1FA995"><animate attributeName="r" values="2.8;4;2.8" dur="2.6s" begin="1.20s" repeatCount="indefinite"/></circle><circle cx="499.6" cy="343.7" r="7" fill="#F26A4B" opacity="0.22"/><circle cx="499.6" cy="343.7" r="3.2" fill="#F26A4B"><animate attributeName="r" values="2.8;4;2.8" dur="2.6s" begin="1.40s" repeatCount="indefinite"/></circle><circle cx="486.3" cy="184.6" r="7" fill="#FBF3E4" opacity="0.22"/><circle cx="486.3" cy="184.6" r="3.2" fill="#FBF3E4"><animate attributeName="r" values="2.8;4;2.8" dur="2.6s" begin="1.60s" repeatCount="indefinite"/></circle><circle cx="437.9" cy="296.7" r="7" fill="#1FA995" opacity="0.22"/><circle cx="437.9" cy="296.7" r="3.2" fill="#1FA995"><animate attributeName="r" values="2.8;4;2.8" dur="2.6s" begin="1.80s" repeatCount="indefinite"/></circle><circle cx="343.3" cy="227.2" r="7" fill="#FFB627" opacity="0.22"/><circle cx="343.3" cy="227.2" r="3.2" fill="#FFB627"><animate attributeName="r" values="2.8;4;2.8" dur="2.6s" begin="2.00s" repeatCount="indefinite"/></circle></g>
  <g><circle r="2.5" fill="#FBF3E4"><animateMotion dur="2.4s" begin="0.00s" repeatCount="indefinite" path="M508.6,286.1 Q583.5,246.5 599.3,208.5"/><animate attributeName="opacity" values="0;1;1;0" dur="2.4s" begin="0.00s" repeatCount="indefinite"/></circle><circle r="2.5" fill="#FBF3E4"><animateMotion dur="2.8s" begin="0.50s" repeatCount="indefinite" path="M399.8,259.9 Q443.3,281.5 513.9,251.9"/><animate attributeName="opacity" values="0;1;1;0" dur="2.8s" begin="0.50s" repeatCount="indefinite"/></circle><circle r="2.5" fill="#FBF3E4"><animateMotion dur="3.2s" begin="1.00s" repeatCount="indefinite" path="M416.6,242.5 Q445.5,188.2 486.3,184.6"/><animate attributeName="opacity" values="0;1;1;0" dur="3.2s" begin="1.00s" repeatCount="indefinite"/></circle><circle r="2.5" fill="#FBF3E4"><animateMotion dur="3.6s" begin="1.50s" repeatCount="indefinite" path="M499.6,343.7 Q516.6,333.2 508.6,286.1"/><animate attributeName="opacity" values="0;1;1;0" dur="3.6s" begin="1.50s" repeatCount="indefinite"/></circle><circle r="2.5" fill="#FBF3E4"><animateMotion dur="2.4s" begin="2.00s" repeatCount="indefinite" path="M343.3,227.2 Q348.6,241.9 399.8,259.9"/><animate attributeName="opacity" values="0;1;1;0" dur="2.4s" begin="2.00s" repeatCount="indefinite"/></circle><circle r="2.5" fill="#FBF3E4"><animateMotion dur="2.8s" begin="2.50s" repeatCount="indefinite" path="M513.9,251.9 Q525.7,200.5 498.8,178.2"/><animate attributeName="opacity" values="0;1;1;0" dur="2.8s" begin="2.50s" repeatCount="indefinite"/></circle></g>
  <g><g transform="rotate(-20 460 250)">
    <circle r="7" fill="#1FA995" opacity="0.22"><animateMotion dur="10s" begin="0.0s" repeatCount="indefinite" path="M159.8,250 a300.2,79.8 0 1,1 600.4,0 a300.2,79.8 0 1,1 -600.4,0"/></circle>
    <circle r="3.1" fill="#1FA995"><animateMotion dur="10s" begin="0.0s" repeatCount="indefinite" path="M159.8,250 a300.2,79.8 0 1,1 600.4,0 a300.2,79.8 0 1,1 -600.4,0"/></circle></g><g transform="rotate(28 460 250)">
    <circle r="7" fill="#FFB627" opacity="0.22"><animateMotion dur="13s" begin="1.3s" repeatCount="indefinite" path="M197.8,250 a262.2,114 0 1,1 524.4,0 a262.2,114 0 1,1 -524.4,0"/></circle>
    <circle r="3.1" fill="#FFB627"><animateMotion dur="13s" begin="1.3s" repeatCount="indefinite" path="M197.8,250 a262.2,114 0 1,1 524.4,0 a262.2,114 0 1,1 -524.4,0"/></circle></g><g transform="rotate(7 460 250)">
    <circle r="7" fill="#F26A4B" opacity="0.22"><animateMotion dur="8s" begin="2.6s" repeatCount="indefinite" path="M232,250 a228,57 0 1,1 456,0 a228,57 0 1,1 -456,0"/></circle>
    <circle r="3.1" fill="#F26A4B"><animateMotion dur="8s" begin="2.6s" repeatCount="indefinite" path="M232,250 a228,57 0 1,1 456,0 a228,57 0 1,1 -456,0"/></circle></g><g transform="rotate(-52 460 250)">
    <circle r="7" fill="#FBF3E4" opacity="0.22"><animateMotion dur="15s" begin="3.9s" repeatCount="indefinite" path="M182.6,250 a277.4,34.2 0 1,1 554.8,0 a277.4,34.2 0 1,1 -554.8,0"/></circle>
    <circle r="3.1" fill="#FBF3E4"><animateMotion dur="15s" begin="3.9s" repeatCount="indefinite" path="M182.6,250 a277.4,34.2 0 1,1 554.8,0 a277.4,34.2 0 1,1 -554.8,0"/></circle></g></g>
</svg>
